<svg xmlns:rdf="http://www.w3.org/1999/02/22-rdf-syntax-ns#" xmlns="http://www.w3.org/2000/svg" height="256" width="256" version="1.1" xmlns:cc="http://creativecommons.org/ns#" xmlns:xlink="http://www.w3.org/1999/xlink" xmlns:dc="http://purl.org/dc/elements/1.1/"><defs><radialGradient id="radialGradient3815" gradientUnits="userSpaceOnUse" cy="896.81" cx="688.26" gradientTransform="matrix(4.5109011,0,0,4.9225266,-3018.2822,-3438.7826)" r="59.569"><stop style="stop-color:#fe6f21;" offset="0"/><stop style="stop-color:#fe6f21;stop-opacity:0;" offset="1"/></radialGradient><radialGradient id="radialGradient3773" gradientUnits="userSpaceOnUse" cy="1002.9" cx="-4.8571" gradientTransform="matrix(2.9985157,1.2594299e-7,-8.6536183e-8,2.0602981,9.7071631,-1063.4086)" r="128"><stop style="stop-color:#000000;stop-opacity:0;" offset="0"/><stop style="stop-color:#000000;stop-opacity:0.4054054;" offset="1"/></radialGradient></defs><metadata><rdf:RDF><cc:Work rdf:about=""><dc:format>image/svg+xml</dc:format><dc:type rdf:resource="http://purl.org/dc/dcmitype/StillImage"/><dc:title/></cc:Work></rdf:RDF></metadata><g transform="translate(0,-796.36218)"><rect style="enable-background:accumulate;fill-rule:nonzero;color:#000000;fill:#444444;" height="256" width="256" y="796.36" x="0"/><rect style="enable-background:accumulate;fill-rule:nonzero;color:#000000;fill:url(#radialGradient3773);" height="256" width="256" y="796.36" x="0"/><path style="fill:url(#radialGradient3815);" d="m104.71,1034.9c-27.887-4.181-54.88-23.223-67.815-47.839-14.741-28.053-14.681-60.46,0.16645-88.912,10.672-20.451,34.797-39.31,57.927-45.282,13.561-3.5012,13.096-2.827-4.0498,5.8776-20.157,10.233-31.58,20.996-40.478,38.139-18.224,35.114-13.194,73.462,12.999,99.094,16.91,16.549,37.523,24.003,58.156,21.03,30.795-4.4364,47.017-24.019,30.905-37.308-5.4895-4.528-15.98-9.0458-24.881-10.716-2.8607-0.53668-5.2013-1.5241-5.2013-2.1942,0-2.0395,21.207-19.487,34.558-28.43,6.917-4.6339,18.404-11.258,25.527-14.721,17.05-8.2885,42.445-17.825,43.829-16.459,0.60372,0.59553,0.39568,7.3782-0.46229,15.073-7.6059,68.211-64.542,121.14-121.18,112.65zm-6.6138-72.133c-9.1436-2.9242-16.085-6.8947-20.768-11.879l-3.2244-3.4322,11.758-11.091c25.273-23.84,57.363-44.558,90.149-58.202,19.363-8.0584,51.217-18.242,52.634-16.827,0.47467,0.47412,0.86307,8.4419,0.86307,17.706,0,13.584-0.4415,17.287-2.2809,19.131-1.2545,1.2578-8.9126,4.5034-17.018,7.2124-31.42,10.501-62.479,28.176-86.655,49.312-6.7889,5.9353-13.487,10.757-14.885,10.715-1.3976-0.042-6.1555-1.2322-10.573-2.645zm-33.943-29.47c-9.3443-18.415-5.5701-37.055,11.026-54.454,19.42-20.36,47.661-33.628,118.81-55.819,18.683-5.8269,34.199-10.364,34.481-10.081,0.28211,0.28213,0.88466,7.5594,1.339,16.172,1.0404,19.721-0.27339,23.663-8.6214,25.873-56.454,14.943-104.25,41.062-138.43,75.645-6.6126,6.6914-12.42,12.166-12.906,12.166-0.4855,0-3.0523-4.2756-5.7039-9.5014z"/></g></svg>